<?xml version="1.0" encoding="UTF-8" standalone="no"?>
<!DOCTYPE svg PUBLIC "-//W3C//DTD SVG 1.1//EN" "http://www.w3.org/Graphics/SVG/1.1/DTD/svg11.dtd">
<svg width="100%" height="100%" viewBox="0 0 209 57" version="1.1" xmlns="http://www.w3.org/2000/svg" xmlns:xlink="http://www.w3.org/1999/xlink" xml:space="preserve" xmlns:serif="http://www.serif.com/" style="fill-rule:evenodd;clip-rule:evenodd;stroke-linejoin:round;stroke-miterlimit:2;">
    <path d="M209,4C209,1.792 207.208,0 205,0L4,0C1.792,0 0,1.792 0,4L0,53C0,55.208 1.792,57 4,57L205,57C207.208,57 209,55.208 209,53L209,4Z" style="fill:rgb(15,59,33);"/>
    <g transform="matrix(0.776318,0,0,0.776318,25.9256,6.37493)">
        <g transform="matrix(0.472052,0,0,0.472052,77.6682,3.9115)">
            <path d="M81.773,0C78.372,0 75.201,1.717 73.341,4.564L58.752,26.9C54.084,34.047 51.75,37.62 48.153,38.11C44.556,38.6 41.351,35.782 34.941,30.144L26.117,22.382C24.279,20.765 21.914,19.873 19.465,19.873L1.341,19.873C0.567,19.873 0.206,20.832 0.787,21.343L25.816,43.357C28.267,45.513 31.42,46.702 34.685,46.702L62.698,46.702C67.233,46.702 71.462,44.414 73.942,40.617L99.622,1.298C99.987,0.74 99.586,-0 98.92,0L81.773,0Z" style="fill:rgb(255,246,246);fill-rule:nonzero;"/>
        </g>
        <g transform="matrix(0.472052,0,0,0.472052,77.6682,3.9115)">
            <path d="M80.857,85.297C78.113,85.297 75.488,84.178 73.588,82.198L65.324,73.583C58.718,66.697 55.415,63.254 51.513,63.69C47.611,64.127 45.151,68.215 40.23,76.39L26.44,99.299C24.618,102.326 21.344,104.177 17.811,104.177L0.841,104.177C0.188,104.177 -0.215,103.464 0.122,102.905L25.945,60.004C28.374,55.968 32.74,53.5 37.45,53.5L64.48,53.5C68.138,53.5 71.638,54.992 74.171,57.632L99.348,83.877C99.859,84.411 99.481,85.297 98.742,85.297L80.857,85.297Z" style="fill:rgb(255,246,246);fill-rule:nonzero;"/>
        </g>
    </g>
    <g transform="matrix(0.268017,0,0,0.268017,21.0141,30.6265)">
        <text x="24.219px" y="7.099px" style="font-family:'MonaSans-ExtraLight_Medium', 'Mona Sans';font-weight:200;font-size:53.498px;fill:white;">P<tspan x="58.137px " y="7.099px ">a</tspan>y with</text>
    </g>
    <g transform="matrix(0.268017,0,0,0.268017,122.403,30.7453)">
        <text x="24.219px" y="7.099px" style="font-family:'MonaSans-ExtraLight_Medium', 'Mona Sans';font-weight:200;font-size:53.498px;fill:white;">X<tspan x="54.606px " y="7.099px ">C</tspan>HP<tspan x="171.124px " y="7.099px ">a</tspan>y</text>
    </g>
</svg>
